<svg width="375" height="614" viewBox="0 0 375 614" fill="none" xmlns="http://www.w3.org/2000/svg">
<path d="M469.91 -16.1064C506.15 119.145 383.241 269.593 195.384 319.929C7.52637 370.265 -174.141 301.428 -210.381 166.177C-246.621 30.926 -123.712 -119.522 64.1454 -169.858C252.003 -220.194 433.67 -151.357 469.91 -16.1064Z" fill="#8DC675"/>
<circle cx="263.438" cy="240.927" r="27.7517" transform="rotate(-66.8088 263.438 240.927)" fill="#B0DED3"/>
<circle r="8.92571" transform="matrix(-0.3938 0.919196 0.919196 0.3938 305.036 208.43)" fill="#B0DED3"/>
<circle r="7.95501" transform="matrix(-0.3938 0.919196 0.919196 0.3938 72.6118 32.1017)" fill="#B0DED3"/>
<circle r="2.61705" transform="matrix(-0.3938 0.919196 0.919196 0.3938 281.436 192.641)" fill="#B0DED3"/>
<circle r="5.37854" transform="matrix(-0.3938 0.919196 0.919196 0.3938 277.204 156.811)" fill="#E174AE"/>
<circle cx="102.044" cy="226.028" r="27.7517" transform="rotate(-130.374 102.044 226.028)" fill="#B0DED3"/>
<circle r="16.0482" transform="matrix(0.647771 0.761835 0.761835 -0.647771 81.7716 180.622)" fill="#4CC9E5"/>
<circle r="5.37854" transform="matrix(0.647771 0.761835 0.761835 -0.647771 62.3308 235.324)" fill="#B0DED3"/>
<circle r="2.44344" transform="matrix(0.647771 0.761835 0.761835 -0.647771 69.8495 245.588)" fill="#B0DED3"/>
<circle cx="141.275" cy="191.604" r="31.2485" transform="rotate(-160.313 141.275 191.604)" fill="#E174AE"/>
<circle r="15.6243" transform="matrix(0.941546 0.336884 0.336884 -0.941546 101.888 147.089)" fill="#E174AE"/>
<circle r="5.47269" transform="matrix(0.941546 0.336884 0.336884 -0.941546 137.612 124.144)" fill="#B0DED3"/>
<circle r="7.42058" transform="matrix(-0.995528 -0.0944673 -0.0944673 0.995528 215.152 50.999)" fill="#4CC9E5"/>
<circle r="3.65684" transform="matrix(-0.995528 -0.0944673 -0.0944673 0.995528 223.942 40.0707)" fill="#B0DED3"/>
<path d="M272.337 108.379C272.337 118.2 264.502 126.161 254.834 126.161C245.173 126.161 237.338 118.2 237.338 108.379C237.338 98.5543 245.173 90.5936 254.834 90.5936C264.502 90.5936 272.337 98.5543 272.337 108.379Z" fill="#35C4E2"/>
<path d="M185.757 108.833C185.757 118.655 177.923 126.621 168.26 126.621C158.596 126.621 150.759 118.655 150.759 108.833C150.759 99.0117 158.596 91.0484 168.26 91.0484C177.923 91.0484 185.757 99.0117 185.757 108.833Z" fill="#8CC96D"/>
<path d="M139.325 103.585C139.325 113.407 131.488 121.369 121.824 121.369C112.161 121.369 104.327 113.407 104.327 103.585C104.327 93.7621 112.161 85.8005 121.824 85.8005C131.488 85.8005 139.325 93.7621 139.325 103.585Z" fill="#DF74AD"/>
<path d="M318.197 105.183C318.197 115.004 310.36 122.967 300.698 122.967C291.036 122.967 283.199 115.004 283.199 105.183C283.199 95.3582 291.036 87.3966 300.698 87.3966C310.36 87.3966 318.197 95.3582 318.197 105.183Z" fill="#DF74AD"/>
<path d="M320.538 148.742C323.593 148.742 325.88 146.458 325.88 143.413C325.88 140.365 323.593 138.082 320.538 138.082H49.6476C46.593 138.082 44.304 140.365 44.304 143.413C44.304 146.458 46.593 148.742 49.6476 148.742H320.538ZM320.538 150.263H49.6476C45.8296 150.263 42.779 147.219 42.779 143.413C42.779 139.606 45.8296 136.559 49.6476 136.559H320.538C324.353 136.559 327.407 139.606 327.407 143.413C327.407 147.219 324.353 150.263 320.538 150.263Z" fill="#58595B"/>
<path fill-rule="evenodd" clip-rule="evenodd" d="M50.0254 139.605H320.157C322.443 139.605 323.975 141.509 323.975 143.413C323.975 145.698 322.443 147.6 320.157 147.6H50.0254C47.739 147.6 46.2113 145.698 46.2113 143.413C46.2113 141.509 47.739 139.605 50.0254 139.605Z" fill="#58595B"/>
<path fill-rule="evenodd" clip-rule="evenodd" d="M204.608 135.907L204.776 142.667L204.693 142.977V144.512L205.119 145.562L205.575 146.216L206.087 146.956L206.827 147.408L207.395 147.635L208.45 147.978L209.302 148.26L210.527 148.291L214.227 148.206C214.227 148.206 218.471 147.778 218.668 143.203L218.61 141.387C218.61 141.387 218.811 140.252 218.811 140.11C218.811 139.967 218.782 138.492 218.782 138.492C218.782 138.492 218.811 137.042 218.811 136.958C218.811 136.873 218.782 136.275 218.782 136.191C218.782 136.103 204.608 135.907 204.608 135.907Z" fill="white"/>
<path d="M80.3096 63.0165C80.3096 70.4208 74.2919 76.4252 66.8728 76.4252C59.4513 76.4252 53.4326 70.4208 53.4326 63.0165C53.4326 55.61 59.4513 49.6077 66.8728 49.6077C74.2919 49.6077 80.3096 55.61 80.3096 63.0165Z" fill="#35C4E2"/>
<path d="M90.8299 99.8175C90.8299 110.027 82.7424 118.305 72.7624 118.305C62.7801 118.305 54.6905 110.027 54.6905 99.8175C54.6905 89.6088 62.7801 81.3312 72.7624 81.3312C82.7424 81.3312 90.8299 89.6088 90.8299 99.8175Z" fill="#8CC96D"/>
<path d="M191.758 116.612L192.328 118.143C194.477 123.93 199.055 128.398 204.89 130.398L205.33 130.549V143.251C205.33 145.622 207.265 147.552 209.64 147.552H213.839C216.213 147.552 218.15 145.622 218.15 143.251V130.446L218.576 130.29C224.342 128.212 228.849 123.706 230.935 117.933L231.508 116.355L232.146 117.906C235.976 127.182 244.932 133.176 254.964 133.176C265.215 133.176 274.516 126.68 278.103 117.009L278.601 115.667L279.282 116.926C283.611 124.902 291.929 129.859 300.989 129.859C314.59 129.859 325.656 118.817 325.656 105.246C325.656 91.674 314.59 80.6326 300.989 80.6326C292.982 80.6326 285.437 84.5524 280.809 91.1184L279.63 92.7924V55.2823C279.63 52.9101 277.697 50.9816 275.318 50.9816H271.122C268.743 50.9816 266.809 52.9101 266.809 55.2823V86.9392L265.876 86.4793C262.476 84.8035 258.807 83.9536 254.964 83.9536C245.998 83.9536 237.721 88.8336 233.365 96.6927L232.149 98.8859V89.9914C232.149 87.6179 230.217 85.6876 227.839 85.6876H223.64C221.264 85.6876 219.33 87.6179 219.33 89.9914V111.102C219.33 115.311 215.862 118.735 211.601 118.735C207.339 118.735 203.869 115.311 203.869 111.102V89.9914C203.869 87.6179 201.936 85.6876 199.559 85.6876H195.363C192.984 85.6876 191.05 87.6179 191.05 89.9914V98.5617L189.839 96.4369C185.447 88.7354 177.227 83.9536 168.389 83.9536C164.545 83.9536 160.876 84.8035 157.477 86.4793L156.541 86.9392V55.2823C156.541 52.9101 154.608 50.9816 152.231 50.9816H148.032C145.657 50.9816 143.722 52.9101 143.722 55.2823V91.9593L142.533 90.1686C137.909 83.1967 130.218 79.0368 121.955 79.0368C112.999 79.0368 104.729 83.9078 100.372 91.7487L99.6219 93.0992L99.1826 91.6208C97.0514 84.4685 92.0769 78.4199 85.5315 75.0289L84.8945 74.6981L85.2888 74.0994C87.5752 70.6036 88.7879 66.5446 88.7879 62.368C88.7879 50.5216 79.1268 40.8861 67.2563 40.8861C55.3864 40.8861 45.7295 50.5216 45.7295 62.368L45.723 99.2434C45.7195 99.3891 45.7153 99.5304 45.7153 99.6753C45.7153 114.949 57.9743 127.377 73.0358 127.377C83.5037 127.377 92.8962 121.446 97.547 111.901L98.2172 110.521L98.7407 111.964C102.258 121.711 111.589 128.26 121.955 128.26C126.259 128.26 130.484 127.146 134.176 125.041L134.618 124.787L134.968 125.159C135.792 126.033 136.911 126.517 138.113 126.517H142.31C144.64 126.517 146.53 124.695 146.613 122.367L146.683 120.347L147.8 122.033C152.424 129.011 160.119 133.176 168.389 133.176C178.322 133.176 187.247 127.265 191.123 118.115L191.758 116.612ZM213.839 148.846H209.64C206.549 148.846 204.033 146.336 204.033 143.251V131.467C198.51 129.446 194.093 125.324 191.685 119.995C187.323 128.839 178.338 134.472 168.389 134.472C160.199 134.472 152.546 130.592 147.617 124.02C146.868 126.238 144.78 127.809 142.31 127.809H138.113C136.743 127.809 135.415 127.303 134.392 126.4C130.61 128.466 126.321 129.555 121.955 129.555C111.527 129.555 102.096 123.259 98.0496 113.75C92.9838 122.991 83.5263 128.669 73.0358 128.669C57.2577 128.669 44.4184 115.663 44.4184 99.6753C44.4184 99.5162 44.4218 99.3575 44.4284 99.2002L44.4301 99.1155V62.5175V62.4385C44.4301 49.8083 54.6714 39.5921 67.2563 39.5921C79.8429 39.5921 90.0847 49.8083 90.0847 62.368C90.0847 66.561 88.9348 70.6439 86.7494 74.2101C92.8819 77.5882 97.6215 83.2134 99.9777 89.8742C104.721 82.3549 113.014 77.7395 121.955 77.7395C129.978 77.7395 137.49 81.4661 142.425 87.7999V55.2823C142.425 52.1969 144.94 49.6859 148.032 49.6859H152.231C155.323 49.6859 157.84 52.1969 157.84 55.2823V84.8775C161.15 83.4046 164.695 82.6588 168.389 82.6588C176.933 82.6588 184.927 86.9011 189.751 93.8719V89.9914C189.751 86.9033 192.268 84.3937 195.363 84.3937H199.559C202.651 84.3937 205.166 86.9033 205.166 89.9914V111.102C205.166 114.597 208.056 117.438 211.601 117.438C215.146 117.438 218.033 114.597 218.033 111.102V89.9914C218.033 86.9033 220.548 84.3937 223.64 84.3937H227.839C230.931 84.3937 233.448 86.9033 233.448 89.9914V94.0833C238.256 86.9851 246.305 82.6588 254.964 82.6588C258.658 82.6588 262.203 83.4046 265.514 84.8775V55.2823C265.514 52.1969 268.029 49.6859 271.122 49.6859H275.318C278.41 49.6859 280.93 52.1969 280.93 55.2823V88.8271C285.848 82.8516 293.211 79.3395 300.989 79.3395C315.308 79.3395 326.955 90.961 326.955 105.246C326.955 119.532 315.308 131.15 300.989 131.15C291.904 131.15 283.528 126.421 278.817 118.714C274.729 128.192 265.307 134.472 254.964 134.472C244.923 134.472 235.906 128.765 231.581 119.809C229.23 125.117 224.89 129.26 219.444 131.35V143.251C219.444 146.336 216.929 148.846 213.839 148.846Z" fill="#58595B"/>
<path d="M121.955 119.771C113.043 119.771 105.797 112.538 105.797 103.649C105.797 94.7568 113.043 87.5228 121.955 87.5228C130.864 87.5228 138.113 94.7568 138.113 103.649C138.113 112.538 130.864 119.771 121.955 119.771ZM121.955 83.3389C110.732 83.3389 101.598 92.4474 101.598 103.649C101.598 114.845 110.732 123.959 121.955 123.959C128.533 123.959 134.39 120.825 138.113 115.978V122.212H142.31V103.256H142.3C142.089 92.2376 133.047 83.3389 121.955 83.3389Z" fill="#58595B"/>
<path d="M73.0358 116.219C64.0648 116.219 56.7659 108.799 56.7659 99.6753C56.7659 90.5533 64.0648 83.1326 73.0358 83.1326C82.0093 83.1326 89.3087 90.5533 89.3087 99.6753C89.3087 108.799 82.0093 116.219 73.0358 116.219ZM67.2563 51.2778C73.385 51.2778 78.3711 56.2528 78.3711 62.368C78.3711 68.4805 73.385 73.4547 67.2563 73.4547C61.1307 73.4547 56.145 68.4805 56.145 62.368C56.145 56.2528 61.1307 51.2778 67.2563 51.2778ZM76.8755 76.6107C81.4573 73.5205 84.4746 68.2877 84.4746 62.368C84.4746 52.8937 76.7506 45.1868 67.2563 45.1868C57.762 45.1868 50.0402 52.8937 50.0402 62.368C50.0402 62.422 50.0418 62.4734 50.0445 62.5258L50.0402 62.521V99.198C50.0354 99.3575 50.0254 99.5162 50.0254 99.6753C50.0254 112.577 60.3499 123.073 73.0358 123.073C85.7242 123.073 96.0488 112.577 96.0488 99.6753C96.0488 88.1035 87.7411 78.4722 76.8755 76.6107Z" fill="#58595B"/>
<path d="M168.389 124.687C159.479 124.687 152.231 117.454 152.231 108.565C152.231 99.6753 159.479 92.4439 168.389 92.4439C177.3 92.4439 184.546 99.6753 184.546 108.565C184.546 117.454 177.3 124.687 168.389 124.687ZM168.389 88.2556C161.81 88.2556 155.954 91.3886 152.231 96.2345V55.2822H148.032V108.961H148.04C148.254 119.977 157.296 128.875 168.389 128.875C179.614 128.875 188.743 119.765 188.743 108.565C188.743 97.3649 179.614 88.2556 168.389 88.2556Z" fill="#58595B"/>
<path d="M300.99 121.367C292.078 121.367 284.831 114.134 284.831 105.246C284.831 96.3551 292.078 89.1224 300.99 89.1224C309.9 89.1224 317.147 96.3551 317.147 105.246C317.147 114.134 309.9 121.367 300.99 121.367ZM300.99 84.9341C289.766 84.9341 280.634 94.0473 280.634 105.246C280.634 116.445 289.766 125.554 300.99 125.554C312.212 125.554 321.347 116.445 321.347 105.246C321.347 94.0473 312.212 84.9341 300.99 84.9341Z" fill="#58595B"/>
<path d="M254.964 124.687C246.053 124.687 238.807 117.454 238.807 108.565C238.807 99.6753 246.053 92.4439 254.964 92.4439C263.874 92.4439 271.122 99.6753 271.122 108.565C271.122 117.454 263.874 124.687 254.964 124.687ZM271.122 96.2345C267.399 91.3886 261.542 88.2556 254.964 88.2556C243.74 88.2556 234.608 97.3649 234.608 108.565C234.608 119.765 243.74 128.875 254.964 128.875C266.054 128.875 275.098 119.977 275.309 108.961H275.318V55.2822H271.122V96.2345Z" fill="#58595B"/>
<path d="M223.64 111.102C223.64 117.682 218.239 123.036 211.601 123.036C204.961 123.036 199.559 117.682 199.559 111.102V89.9913H195.363V111.102C195.363 119.332 201.609 126.129 209.64 127.092V143.251H213.839V127.053C221.736 125.965 227.839 119.236 227.839 111.102V89.9913H223.64V111.102Z" fill="#58595B"/>
<path d="M113.77 150.582C113.77 160.157 105.96 167.952 96.362 167.952C86.7641 167.952 78.9569 160.157 78.9569 150.582C78.9569 150.225 78.9713 149.871 78.992 149.522H77.4626C77.4418 149.871 77.4309 150.228 77.4309 150.582C77.4309 160.999 85.9209 169.473 96.362 169.473C106.803 169.473 115.297 160.999 115.297 150.582C115.297 150.228 115.282 149.871 115.264 149.522H113.732C113.755 149.871 113.77 150.225 113.77 150.582Z" fill="#58595B"/>
<path d="M100.894 150.582C100.894 153.074 98.8606 155.103 96.362 155.103C93.8633 155.103 91.8312 153.074 91.8312 150.582C91.8312 150.216 91.882 149.863 91.9651 149.522H90.4041C90.3434 149.865 90.3065 150.217 90.3065 150.582C90.3065 153.914 93.0236 156.625 96.362 156.625C99.7033 156.625 102.421 153.914 102.421 150.582C102.421 150.217 102.382 149.865 102.32 149.522H100.762C100.845 149.863 100.894 150.216 100.894 150.582Z" fill="#58595B"/>
<path d="M117.814 149.522C117.831 149.871 117.841 150.228 117.841 150.582C117.841 162.399 108.206 172.013 96.362 172.013C84.5188 172.013 74.8854 162.399 74.8854 150.582C74.8854 150.228 74.8954 149.871 74.9119 149.522H73.385C73.3707 149.871 73.3599 150.228 73.3599 150.582C73.3599 163.239 83.6779 173.536 96.362 173.536C109.046 173.536 119.367 163.239 119.367 150.582C119.367 150.228 119.356 149.871 119.34 149.522H117.814Z" fill="#58595B"/>
<path d="M295.348 150.582C295.348 160.157 287.545 167.952 277.945 167.952C268.349 167.952 260.537 160.157 260.537 150.582C260.537 150.225 260.55 149.871 260.575 149.522H259.043C259.023 149.871 259.015 150.228 259.015 150.582C259.015 160.999 267.506 169.473 277.945 169.473C288.384 169.473 296.88 160.999 296.88 150.582C296.88 150.228 296.864 149.871 296.846 149.522H295.32C295.336 149.871 295.348 150.225 295.348 150.582Z" fill="#58595B"/>
<path d="M282.473 150.582C282.473 153.074 280.444 155.103 277.945 155.103C275.447 155.103 273.413 153.074 273.413 150.582C273.413 150.216 273.463 149.863 273.546 149.522H271.989C271.927 149.865 271.89 150.217 271.89 150.582C271.89 153.914 274.604 156.625 277.945 156.625C281.287 156.625 284.001 153.914 284.001 150.582C284.001 150.217 283.963 149.865 283.902 149.522H282.345C282.428 149.863 282.473 150.216 282.473 150.582Z" fill="#58595B"/>
<path d="M299.396 149.522C299.412 149.871 299.42 150.228 299.42 150.582C299.42 162.399 289.787 172.013 277.945 172.013C266.104 172.013 256.466 162.399 256.466 150.582C256.466 150.228 256.479 149.871 256.495 149.522H254.968C254.952 149.871 254.943 150.228 254.943 150.582C254.943 163.239 265.262 173.536 277.945 173.536C290.633 173.536 300.952 163.239 300.952 150.582C300.952 150.228 300.939 149.871 300.922 149.522H299.396Z" fill="#58595B"/>
</svg>
