<svg width="281" height="812" viewBox="0 0 281 812" fill="none" xmlns="http://www.w3.org/2000/svg">
    <g clip-path="url(#clip0_2_36)">
        <rect width="281" height="812" fill="white"/>
        <path d="M18.5962 545.619C19.3846 544.394 19.8441 543.566 20.4178 542.838C20.9277 542.194 21.5919 541.664 22.1554 541.053C23.608 539.46 23.5375 538.41 21.8032 537.085C20.8404 536.357 19.7234 535.81 18.764 535.099C18.0869 534.636 17.5021 534.052 17.0397 533.375C16.2715 532.13 16.7043 531.026 18.0796 530.463C18.7361 530.216 19.4086 530.014 20.0924 529.859C20.8874 529.641 21.7227 529.517 22.4942 529.222C24.3896 528.494 24.7317 527.695 23.9568 525.827C23.6035 525.007 23.1839 524.217 22.7022 523.465C22.0481 522.395 21.4308 521.275 22.1588 520.084C22.9404 518.792 24.3057 518.876 25.6006 519.064C26.674 519.218 27.7408 519.48 28.8142 519.534C30.5452 519.614 31.5516 518.561 31.4644 516.816C31.4241 515.991 31.2128 515.176 31.1356 514.354C31.0092 513.535 30.971 512.705 31.0216 511.878C31.1993 510.319 32.4271 509.641 33.7689 510.412C34.7497 511.006 35.6572 511.713 36.4727 512.519C38.9517 514.877 39.8877 514.78 41.8266 511.909C42.4061 511.069 43.0534 510.278 43.7622 509.544C45.0738 508.172 46.58 508.336 47.5596 509.939C47.9109 510.618 48.1984 511.328 48.4183 512.06C48.6196 512.596 48.7639 513.157 48.9551 513.697C49.5388 515.34 50.1929 515.565 51.632 514.515C52.4539 513.915 53.1751 513.18 53.9567 512.519C54.3388 512.181 54.7458 511.873 55.1744 511.597C56.4794 510.815 57.7742 511.144 58.2607 512.576C58.545 513.542 58.616 514.559 58.4686 515.555C58.0963 518.772 58.4988 519.235 61.8131 519.101C62.9604 519.054 64.111 519.104 65.2449 519.024C66.2814 518.967 67.2106 519.171 67.7306 520.107C67.9918 520.588 68.1123 521.133 68.0785 521.679C68.0447 522.226 67.8579 522.752 67.5394 523.197C67.0966 523.894 66.4894 524.482 65.9996 525.152C65.5702 525.743 65.2046 526.37 64.6813 527.189C66.3619 527.957 67.8379 528.541 69.2234 529.289C70.1723 529.786 71.039 530.426 71.793 531.187C72.0293 531.407 72.216 531.675 72.3407 531.973C72.4653 532.271 72.5251 532.592 72.5159 532.915C72.5066 533.238 72.4287 533.555 72.2873 533.845C72.1459 534.136 71.9442 534.393 71.6957 534.599C70.7998 535.411 69.8382 536.149 68.8208 536.803C67.3448 537.803 67.1335 538.712 68.2405 540.127C68.794 540.828 69.4817 541.415 70.0788 542.08C71.6353 543.804 71.1858 545.87 68.9919 546.581C67.7239 546.984 66.3686 547.111 65.0671 547.407C62.7491 547.933 62.4572 548.42 62.9772 550.758C63.2556 552.002 63.5709 553.197 63.0677 554.505C62.9204 555.033 62.595 555.493 62.1468 555.808C61.6985 556.123 61.1552 556.273 60.6089 556.233C59.4642 556.17 58.324 556.042 57.1939 555.85C55.1912 555.585 54.8558 555.793 54.3459 557.698C54.0138 558.943 53.6548 560.154 52.5981 561.03C51.4576 561.976 50.5082 562.147 49.2872 561.355C48.3389 560.714 47.4416 560.001 46.6035 559.221C44.6847 557.49 43.6784 557.524 41.9776 559.466C41.5111 560.07 40.9985 560.636 40.4445 561.16C39.2 562.177 38.0963 562.026 37.2409 560.64C36.8017 559.869 36.4902 559.032 36.3184 558.161C35.7247 555.703 35.0269 555.199 32.5445 555.689C31.9239 555.813 31.3302 556.065 30.7163 556.222C29.9253 556.468 29.1151 556.648 28.2943 556.759C26.9055 556.873 26.2916 556.186 26.456 554.773C26.5613 554.08 26.708 553.393 26.8954 552.717C27.043 552.093 27.2342 551.486 27.3919 550.879C28.0125 548.145 27.2879 547.111 24.4801 546.706C23.675 546.571 22.8196 546.588 22.0078 546.434C21.0048 546.29 20.0521 545.994 18.5962 545.619ZM57.3885 512.784C56.0768 512.425 55.2986 512.975 54.5572 513.603C53.8276 514.318 53.0581 514.991 52.2526 515.619C50.2164 516.984 48.6431 516.35 47.9487 513.999C47.68 512.884 47.3094 511.797 46.8417 510.751C46.0869 509.285 44.9866 509.252 44.044 510.57C43.3999 511.442 42.7827 512.335 42.152 513.214C40.4311 515.605 38.5895 515.783 36.3755 513.777C35.8565 513.213 35.2995 512.685 34.7082 512.197C34.0541 511.764 33.1181 511.104 32.5613 511.298C31.5348 511.654 31.9374 512.814 32.0044 513.666C32.095 514.81 32.4036 515.951 32.4104 517.078C32.4439 519.366 30.8941 520.741 28.5962 520.543C27.7072 520.466 26.8317 520.261 25.9461 520.147C25.3224 520.033 24.6873 519.992 24.0541 520.027C23.0243 520.137 22.6385 520.818 23.0008 521.805C23.2357 522.328 23.5011 522.838 23.7958 523.331C24.3018 524.215 24.7479 525.131 25.1309 526.075C25.7046 527.722 25.2316 528.953 23.6516 529.735C22.5948 530.174 21.5072 530.535 20.3976 530.815C19.5154 531.1 18.6331 531.399 17.8448 531.657C17.7282 532.167 17.7885 532.702 18.0159 533.173C18.2433 533.644 18.6242 534.024 19.0961 534.25C20.136 534.867 21.2229 535.417 22.2192 536.092C24.4902 537.631 24.7686 539.48 23.0545 541.583C22.407 542.371 21.6221 543.049 20.9478 543.817C20.6626 544.217 20.4134 544.641 20.2031 545.085C20.9511 545.25 21.4879 545.411 22.0347 545.488C23.1115 545.639 24.2185 545.659 25.2651 545.894C27.8347 546.451 28.8109 547.876 28.4285 550.459C28.2977 551.342 27.979 552.19 27.8247 553.076C27.6704 553.961 27.61 554.746 27.459 555.978C28.3614 555.538 28.8545 555.287 29.3476 555.055C30.5221 554.427 31.7395 553.882 32.9907 553.425C35.0504 552.801 36.4761 553.764 36.986 555.857C37.1336 556.474 37.1839 557.121 37.3583 557.732C37.7273 559.02 38.4653 559.369 39.673 558.772C40.3486 558.417 40.986 557.993 41.575 557.507C43.8393 555.746 45.2282 555.793 47.2912 557.735C47.4724 557.917 47.6535 558.098 47.8347 558.279C50.0822 560.406 50.6961 560.315 52.2224 557.628C53.6783 555.058 54.9933 554.434 57.8883 554.914C58.6985 555.086 59.5204 555.197 60.3472 555.246C61.5246 555.263 62.1318 554.663 62.1587 553.488C62.1651 552.786 62.0748 552.086 61.8903 551.409C60.9476 547.91 62.8899 546.196 65.9594 546.085C66.7253 546.067 67.486 545.953 68.2237 545.746C69.4381 545.391 69.6964 544.616 68.9785 543.582C68.4686 542.851 67.8883 542.163 67.3113 541.479C65.7044 539.577 65.6675 538.426 67.3113 536.628C68.217 535.642 69.2603 534.78 70.1929 533.821C71.5615 532.452 71.3804 531.808 69.5454 531.114C69.1295 530.959 68.69 530.882 68.2606 530.761C67.4656 530.537 66.6739 530.288 65.8722 530.084C63.4971 529.473 62.5411 525.243 64.8289 523.874C65.096 523.701 65.3357 523.488 65.5401 523.244C66.1171 522.606 67.1402 522.08 66.5901 521.026C66.0399 519.973 65.0134 520.121 64.0372 520.258C62.843 520.406 61.6186 520.664 60.4311 520.751C58.6665 520.859 57.5159 519.849 57.2979 518.101C57.2679 517.339 57.2915 516.576 57.3684 515.817C57.3851 514.747 57.3851 513.754 57.3885 512.784ZM40.2231 559.906L37.7944 560.094C38.7874 560.993 39.3174 560.852 40.2231 559.906Z" fill="#F8D000"/>
        <path d="M95.2878 523.425C91.8862 526.061 88.7732 528.94 86.1835 532.73C88.8235 535.874 92.3089 538.225 95.2877 541.405C94.0734 541.533 92.9429 541.811 91.8325 541.761C86.8613 541.593 81.8845 541.772 76.9383 542.298C75.5486 542.356 74.1589 542.183 72.8256 541.788C71.3563 541.419 70.994 540.513 71.7856 539.191C72.4048 538.235 73.1444 537.362 73.9863 536.595C74.7008 535.88 75.6099 535.367 76.3982 534.726C77.9983 533.435 78.1895 532.063 76.6431 530.711C75.0966 529.359 73.2382 528.259 71.5273 527.038C70.989 526.676 70.517 526.224 70.1319 525.703C74.2949 524.847 78.468 524.713 82.6008 524.257C86.7336 523.801 90.9235 523.381 95.0865 522.948C95.1301 523.099 95.2005 523.257 95.2878 523.425ZM84.8852 532.922C86.8242 529.681 89.481 527.306 92.2888 524.451C90.947 524.451 90.0949 524.351 89.2462 524.435C83.7827 524.978 78.3215 525.555 72.8625 526.165C72.735 526.179 72.6176 526.343 72.3995 526.508C72.8121 526.766 73.1442 526.964 73.4495 527.175C74.7474 527.98 75.9953 528.863 77.1865 529.819C79.1892 531.593 79.1422 533.619 77.1563 535.391C76.3479 536.112 75.422 536.695 74.5733 537.376C73.5434 538.205 72.5035 539.044 72.4733 540.818C73.6038 540.936 74.6639 541.204 75.7038 541.137C79.84 540.865 83.9695 540.493 88.1157 540.131C89.3502 540.023 90.5679 539.899 92.1714 539.738C90.645 538.393 89.4273 537.376 88.2767 536.293C87.1261 535.209 86.009 534.045 84.8718 532.908L84.8852 532.922Z" fill="#F8D000"/>
        <path d="M51.3367 577.527C49.8741 578.99 48.5423 580.268 47.2676 581.596C45.9928 582.925 44.4464 583.847 43.6983 585.836C42.8328 584.615 42.8966 583.398 42.8664 582.247C42.8328 580.979 43.0576 579.694 43.0005 578.43C42.863 575.313 42.5947 572.2 42.4437 569.084C42.3431 567.051 42.2726 565.008 42.3598 562.962C42.4169 561.368 42.9435 560.761 44.3088 560.214C45.4326 562.297 47.1468 563.857 49.0488 565.249C51.1555 566.799 52.3397 566.655 53.8123 564.511C54.6309 563.317 55.3756 562.049 56.1605 560.821C56.4591 560.362 56.8113 559.936 57.1166 559.523C58.123 559.859 58.1498 560.623 58.2202 561.298C58.5825 564.203 58.9549 567.111 59.2233 570.023C59.5956 574.018 59.8606 578.04 60.1994 582.022C60.3191 582.927 60.3337 583.842 60.243 584.75C56.5564 583.17 54.2451 580.174 51.3367 577.527ZM58.9817 582.938C59.4447 580.295 57.8009 563.287 56.9388 561.754C56.0431 563.012 55.2347 564.303 54.2786 565.474C52.3833 567.792 50.7161 567.916 48.3746 565.971C47.2474 565.038 46.1908 564.015 45.0871 563.052C44.7601 562.801 44.4184 562.569 44.064 562.358C43.9566 562.64 43.8728 562.757 43.8761 562.874C44.0662 568.611 44.2663 574.348 44.4766 580.087C44.5945 580.937 44.7796 581.778 45.0301 582.599L51.4339 576.195C54.1377 578.423 56.0163 581.268 58.9817 582.938Z" fill="#F8D000"/>
        <path d="M33.5266 527.017C34.0365 526.353 34.4591 525.723 34.969 525.172C35.5 524.658 36.0564 524.171 36.6362 523.713C39.3333 525.431 41.6413 527.92 44.2411 530.043C46.7503 532.105 49.2718 534.15 51.8056 536.179C52.1116 536.369 52.4423 536.517 52.7885 536.618C53.7009 535.827 54.4993 535.015 55.405 534.357C55.7608 534.123 56.16 533.962 56.5791 533.884C56.9981 533.807 57.4284 533.815 57.8445 533.907C58.2606 533.999 58.6539 534.173 59.0013 534.42C59.3487 534.667 59.6429 534.981 59.8666 535.343C59.9844 535.687 59.9761 536.062 59.8432 536.4C59.7173 536.699 59.5245 536.966 59.2796 537.178L48.6154 547.843C47.5654 547.289 46.4853 546.719 45.3279 546.112C45.7103 543.602 48.0954 542.673 49.4373 540.627C45.5292 536.377 40.5645 533.17 36.4484 528.926C36.5356 529.51 36.6396 530.117 36.7436 530.711C37.0384 532.494 36.6477 534.323 35.65 535.83C35.4957 536.085 35.0965 536.182 34.4055 536.598C35.0563 534.605 35.9754 533.15 35.801 531.365C35.6265 529.58 34.761 528.265 33.5266 527.017ZM36.643 525.914C36.7973 526.102 36.9281 526.3 37.1126 526.484C39.075 528.493 41.024 530.523 43.02 532.506C45.1434 534.629 47.3206 536.705 49.4876 538.785C49.9505 539.248 50.4571 539.755 51.5742 539.382C46.4282 534.854 42.1344 529.795 36.6296 525.9L36.643 525.914ZM48.2129 546.601C50.655 544.897 54.0397 541.318 54.3215 540.191C52.0236 541.248 51.9733 541.311 50.1149 544.344C49.9707 544.582 49.5983 544.679 49.3333 544.844C49.2394 544.75 49.1253 544.676 49.018 544.595L50.1317 542.053L49.9136 541.915L46.7201 545.109L48.2129 546.601ZM57.968 536.229L55.0965 537.719C55.6332 537.792 56.1129 537.447 56.4987 537.531C57.9143 537.839 58.3068 536.796 58.9274 536.001C57.6526 534.592 57.5956 534.582 56.2068 535.293C56.7503 535.575 57.2098 535.806 57.9713 536.226L57.968 536.229ZM50.2189 536.484C50.7221 537.162 51.1112 538.047 52.3323 538.396C52.0002 537.078 51.0206 536.897 50.2223 536.481L50.2189 536.484Z" fill="#F8D000"/>
        <path d="M216.751 616.031C212.195 615.894 207.943 615.524 203.852 617.413C203.25 616.329 203.695 615.535 204.085 614.775C206.617 610.08 210.208 606.04 214.574 602.975C216.664 601.539 219.083 600.656 221.606 600.408C222.548 600.302 223.489 600.16 224.436 600.033C228.582 591.888 234.839 585.858 242.782 581.606C247.966 578.731 253.625 576.814 259.488 575.946C261.761 575.642 264.12 575.41 265.837 573.516C266.343 572.964 267.158 572.777 267.659 573.344C268.039 573.774 268.353 574.741 268.125 575.156C266.191 578.7 266.748 582.593 266.328 586.35C265.757 590.815 264.445 595.154 262.445 599.188C259.493 605.354 255.316 610.854 250.168 615.352C249.095 616.299 248.027 617.251 246.923 618.162C246.589 618.388 246.337 618.717 246.206 619.098C246.074 619.48 246.07 619.894 246.194 620.278C247.04 623.999 246.154 627.446 244.119 630.59C243.014 632.31 241.792 633.952 240.464 635.506C238.555 637.723 236.5 639.819 234.49 641.95C234.08 642.378 233.581 642.708 233.027 642.917C233.969 638.012 232.87 633.41 231.873 628.631C231.414 628.837 230.969 629.072 230.541 629.335C228.486 630.818 226.522 630.433 224.466 629.249C221.525 627.543 219.206 625.199 217.045 622.627C215.526 620.83 214.741 619.195 216.377 617.119C216.55 616.775 216.676 616.409 216.751 616.031V616.031ZM266.869 574.053C265.037 575.916 262.88 576.584 260.546 576.822C256.385 577.268 252.446 578.584 248.579 580.087C241.012 582.937 234.378 587.819 229.407 594.196C228.071 595.912 226.81 597.694 225.61 599.507C224.74 600.823 223.53 601.319 222.067 601.436C219.537 601.619 217.106 602.495 215.04 603.967C210.858 606.923 207.644 610.761 204.991 615.104C204.9 615.251 204.956 615.484 204.935 615.767C209.39 614.866 213.8 614.416 218.462 615.469C217.835 616.694 217.313 617.787 216.716 618.835C216.311 619.549 216.473 620.055 216.938 620.678C219.247 623.746 221.824 626.495 225.165 628.51C227.453 629.887 227.372 629.978 229.777 628.626C230.617 628.155 231.296 627.214 232.571 627.578C233.88 631.732 234.524 636.067 234.48 640.421C236.763 637.961 238.773 635.961 240.595 633.8C243.739 630.069 246.134 626.004 245.394 620.83C245.126 618.957 245.643 617.499 247.308 616.517C247.422 616.44 247.527 616.352 247.622 616.253C252.365 612.203 256.598 607.703 259.691 602.241C262.784 596.778 265.097 590.961 265.457 584.563C265.644 581.242 265.543 577.88 267.117 574.797C267.153 574.701 267.036 574.539 266.869 574.053Z" fill="#84B140"/>
        <path d="M222.862 633.263C223.789 633.314 224.275 633.851 224.163 634.726C224.105 635.804 223.874 636.865 223.48 637.87C222.625 639.673 221.405 641.279 219.898 642.586C218.39 643.893 216.628 644.873 214.722 645.464C215.572 643.505 217.511 642.3 217.106 639.895C212.505 643.201 207.903 646.274 202 647.306C202.931 641.905 204.146 636.939 207.017 632.023L202.268 633.177C203.868 628.444 208.45 624.065 212.803 625.077C213.987 625.35 215.132 625.772 216.21 626.333C218.605 627.578 220.468 629.487 222.159 631.547C222.495 632.099 222.757 632.693 222.938 633.314C221.597 632.079 220.25 630.848 218.888 629.603C217.291 628.123 215.42 626.97 213.38 626.206C210.302 625.027 205.529 628.14 204.536 631.618L209.968 629.527C208.162 631.881 206.704 634.483 205.64 637.252C204.673 639.966 203.544 642.679 203.564 645.859C206.566 645.216 209.032 643.91 211.391 642.452C213.75 640.994 215.947 639.343 218.321 637.703C219.091 639.389 218.058 640.781 218.129 642.229C221.495 640.654 223.531 636.751 222.862 633.263Z" fill="#84B140"/>
        <path d="M247.551 592.075C247.525 591.314 247.678 590.556 247.999 589.865C248.32 589.174 248.8 588.568 249.399 588.096C249.708 587.832 250.063 587.628 250.447 587.494C252.669 586.734 254.132 588.446 255.661 589.418C256.881 590.197 256.674 591.888 256.081 593.194C255.276 594.996 253.925 596.191 251.829 596.176C249.191 596.156 247.298 594.318 247.551 592.075ZM248.599 591.974C248.584 592.4 248.657 592.825 248.811 593.222C248.966 593.619 249.2 593.981 249.499 594.285C249.798 594.589 250.155 594.829 250.55 594.99C250.944 595.152 251.367 595.231 251.793 595.224C253.53 595.26 255.271 593.473 255.307 591.615C255.337 589.893 253.707 588.425 251.763 588.415C249.986 588.405 248.645 589.959 248.599 591.984V591.974Z" fill="#84B140"/>
        <path d="M201.005 7.58597C201.005 0.179071 202.896 -5.53826 206.202 -10.8993C209.589 -16.4124 214.547 -19.7475 220.476 -21.8975C223.259 -22.8936 226.129 -23.6255 229.049 -24.0835C230.848 -24.3758 232.647 -24.6761 234.454 -24.8843C237.453 -25.2566 240.356 -24.6921 243.174 -23.7392C250.279 -21.337 255.465 -16.5565 259.36 -10.2867C261.749 -6.47701 263.314 -2.20791 263.954 2.245C265.185 11.0532 262.934 18.8685 257.46 25.835C253.062 31.4402 247.465 35.0956 240.524 36.617C237.31 37.3024 234.008 37.4794 230.74 37.1415C226.126 36.6669 221.646 35.3076 217.545 33.1378C211.636 30.107 206.898 25.831 204.003 19.7533C202 15.5934 200.921 11.1893 201.005 7.58597ZM250.499 25.6428L249.84 24.6379L249.576 24.9021L250.559 25.6028C250.491 26.3595 250.919 26.7758 251.759 27.3444C251.571 26.637 251.121 26.0282 250.499 25.6428V25.6428ZM234.194 -3.116C233.99 -2.58751 233.83 -2.06302 234.482 -1.56255C234.37 -2.15511 234.282 -2.63555 234.19 -3.116C233.647 -4.34114 232.939 -5.51824 233.215 -6.9756C234.39 -5.39813 234.562 -3.39226 235.554 -1.47848C236.098 -3.76861 236.589 -5.83053 237.089 -7.9405L233.89 -10.0425C233.758 -8.22476 235.89 -7.49208 235.294 -5.53425C234.81 -6.01871 234.33 -6.31498 234.122 -6.73537C233.611 -7.682 233.218 -8.68775 232.951 -9.73016C232.687 -10.9793 231.903 -11.5078 230.952 -11.9042C231.627 -9.50195 232.283 -7.13575 232.951 -4.78155C233.078 -4.3139 233.265 -3.8645 233.507 -3.44431C233.643 -3.27615 233.97 -3.2241 234.194 -3.116ZM218.321 15.4613C219.78 17.4632 221.2 19.425 222.611 21.3788C223.411 22.5159 224.247 23.6529 225.03 24.814C225.562 25.6148 226.178 25.9751 227.193 25.7909C228.102 25.6805 229.017 25.6403 229.932 25.6708C232.567 25.6028 235.206 25.5267 237.841 25.4746C238.182 25.5019 238.524 25.4304 238.826 25.2685C239.128 25.1067 239.377 24.8614 239.544 24.5618C241.27 21.9117 242.604 19.0259 243.506 15.9938C240.807 11.878 238.105 7.75413 235.302 3.47014C233.802 4.75133 231.891 4.11874 230.08 4.1828C228.481 4.23485 226.881 4.04267 225.282 3.95859C225.013 3.93367 224.743 3.99509 224.511 4.13398C224.278 4.27288 224.096 4.48206 223.991 4.73131C222.103 8.35869 220.184 11.958 218.321 15.4613ZM244.094 15.153C245.018 14.9648 245.741 14.7526 246.493 14.6806C247.245 14.6085 248 14.6806 248.752 14.6566C250.044 14.6566 251.331 14.6566 252.618 14.6085C254.01 14.5725 254.218 14.4604 254.534 13.1431C255.469 9.4437 256.369 5.73625 257.256 2.02479C257.35 1.67819 257.308 1.30902 257.14 0.991827C255.245 -1.55054 253.406 -4.14896 251.335 -6.54319C250.359 -7.66824 249.656 -8.70521 249.808 -10.2106C249.808 -10.2787 249.696 -10.3587 249.604 -10.4749C246.173 -9.67411 242.735 -8.82132 239.272 -8.07262C238.846 -8.01749 238.449 -7.82401 238.143 -7.52177C237.837 -7.21954 237.638 -6.82519 237.577 -6.39906C237.029 -3.71656 236.505 -1.03006 236.03 1.66445C235.961 2.13398 236.047 2.61302 236.273 3.02973C237.473 5.13169 238.672 7.23765 239.972 9.26754C241.271 11.2974 242.719 13.1912 244.094 15.153ZM203.711 3.50617C205.675 6.82126 207.642 10.0883 209.545 13.3914C209.925 14.044 210.345 14.3403 211.068 14.2882C212.735 14.2162 214.402 14.4287 215.998 14.9168C216.506 15.0172 217.021 15.0827 217.537 15.113C219.333 11.7859 221.116 8.48681 222.875 5.17172C222.982 4.88639 222.982 4.57223 222.875 4.2869C222.339 2.71744 221.788 1.15198 221.2 -0.401471C220.36 -2.59551 219.485 -4.77354 218.593 -7.03966C215.582 -7.6242 212.476 -7.31992 209.329 -7.35195L203.711 3.50617ZM225.482 -20.6443C226.022 -19.227 226.582 -17.7256 227.161 -16.2402C227.561 -15.2233 228.021 -14.2904 229.292 -14.1022C229.648 -13.9755 229.975 -13.778 230.252 -13.5217C232.355 -12.1164 234.474 -10.7191 236.541 -9.27774C236.871 -9.00619 237.262 -8.81967 237.68 -8.73451C238.098 -8.64936 238.531 -8.66817 238.94 -8.78929C240.755 -9.27774 242.599 -9.65409 244.426 -10.0985C246.189 -10.5269 247.948 -10.9833 249.796 -11.4478C249.676 -12.8531 250.419 -14.1943 249.54 -15.7157C249.988 -15.7718 250.435 -15.98 250.699 -15.8399C252.107 -15.0791 253.498 -14.2384 254.841 -13.4096C255.329 -13.1093 255.765 -12.801 256.441 -13.0092C254.806 -15.3364 252.776 -17.3583 250.443 -18.9828C246.641 -21.6052 242.787 -24.0915 237.805 -23.5911C236.265 -23.4349 234.69 -23.6832 233.131 -23.7072C232.65 -23.7287 232.17 -23.6524 231.719 -23.483C229.716 -22.6062 227.737 -21.6773 225.486 -20.6443H225.482ZM253.63 28.8057L253.402 28.5655C253.222 28.6616 253.034 28.7497 252.866 28.8618C251.943 29.4784 251.099 30.191 249.952 30.4633C249.232 30.6204 248.559 30.9455 247.988 31.4122C247.381 31.9246 246.685 32.1849 246.125 31.7245C244.346 30.2551 242.559 28.7897 240.807 27.2843C240.462 26.9504 240.053 26.6905 239.604 26.5205C239.155 26.3505 238.676 26.2739 238.197 26.2954C234.974 26.4395 231.743 26.5837 228.517 26.5516C226.286 26.5316 224.594 27.2523 222.919 28.7817C221.32 30.2191 220.688 31.4682 221.748 33.382C221.776 33.426 221.748 33.5021 221.796 33.5341C222.155 33.8945 222.459 34.411 222.895 34.5791C226.122 35.7873 229.527 36.4529 232.971 36.549C237.777 36.741 242.554 35.718 246.861 33.5742C249.357 32.357 251.642 30.7471 253.63 28.8057V28.8057ZM224.442 -20.9846C222.403 -20.7404 220.196 -21.0207 218.137 -20.0718C217.402 -19.7355 216.682 -19.3671 215.966 -18.9948C213.263 -17.6536 210.9 -15.7135 209.057 -13.3215C208.715 -12.9206 208.491 -12.4328 208.409 -11.9122C208.325 -10.3107 208.377 -8.73323 208.377 -7.13975C208.913 -8.08863 208.909 -8.1567 209.801 -8.18072C211.736 -8.23277 213.675 -8.22876 215.61 -8.18072C216.898 -8.1607 218.301 -7.69627 219.437 -8.07262C220.636 -8.47299 221.588 -9.62206 222.635 -10.4749C224.139 -11.668 225.642 -12.8691 227.145 -14.0782L224.442 -20.9846ZM260.683 -5.86256L260.303 -5.89059C259.727 -3.79663 259.104 -1.71069 258.58 0.391266C257.66 3.98261 256.829 7.58597 255.837 11.1893C255.283 12.9648 255.243 14.8611 255.721 16.6584C256.541 19.7213 256.921 22.8762 255.125 26.1793C255.801 25.9591 256.349 25.9511 256.569 25.6828C258.78 22.9483 260.619 19.9975 261.726 16.6544C259.727 13.6516 258.796 10.6128 260.991 7.33774C261.391 6.7572 261.762 6.17265 262.19 5.60813C262.401 5.37304 262.631 5.15608 262.878 4.95953C262.802 5.60413 262.558 6.16064 262.742 6.47694C263.246 7.31772 263.034 8.07843 262.858 8.91921C262.566 10.3365 262.366 11.7699 262.126 13.1952C262.094 13.4034 262.126 13.7437 262.018 13.7998C260.915 14.3603 261.619 14.8047 262.17 15.5694C264.377 8.01037 263.762 0.979815 260.695 -5.86256H260.683ZM207.314 -10.7751C199.125 0.323203 200.625 17.3671 208.865 25.2785C210.572 24.2815 210.568 24.2335 210.257 22.3557C209.993 20.7542 209.857 19.1527 209.589 17.5513C209.373 16.238 209.353 14.7847 208.749 13.6596C206.838 10.1243 204.691 6.71316 202.616 3.2219C203.547 2.42116 204.075 1.62041 203.492 0.491359C203.348 0.219106 203.515 -0.253334 203.623 -0.609666C204.135 -2.30725 204.607 -4.02084 205.223 -5.67438C205.581 -6.68922 206.107 -7.63661 206.778 -8.477C207.076 -8.7694 207.285 -9.14092 207.38 -9.54796C207.475 -9.955 207.452 -10.3807 207.314 -10.7751V-10.7751ZM220.976 33.8625C220.484 31.5923 220.176 31.1159 218.717 30.2791C218.345 30.0629 217.973 29.8467 217.613 29.6105C215.326 28.1211 213.039 26.6237 210.668 25.0703L209.349 26.1232C212.676 29.5304 216.494 31.9567 220.976 33.8625ZM232.207 2.18094C232.103 1.78056 232.023 1.41222 231.883 1.04388C230.511 -2.57016 229.135 -6.18152 227.757 -9.79022C227.401 -10.7191 226.861 -11.6279 227.673 -12.5928C227.733 -12.6649 227.625 -12.8811 227.553 -13.2214L226.054 -12.1084C226.965 -9.70614 227.829 -7.39599 228.705 -5.10185C229.544 -2.8998 230.388 -0.697746 231.264 1.4963C231.396 1.8206 231.392 2.44118 232.207 2.18094ZM252.418 26.6317L254.35 24.6699C253.85 24.2175 253.406 23.5729 253.15 23.6409C252.199 23.9092 251.883 23.2406 251.475 22.7201C249.972 20.8303 248.508 18.9085 247.021 17.0067C246.773 16.6905 246.469 16.4142 246.181 16.1099C245.605 16.8266 246.089 17.231 246.417 17.6233C247.896 19.393 249.4 21.1386 250.887 22.9002C251.239 23.3206 251.555 23.7691 251.963 24.2975L250.875 24.5858L252.418 26.6317ZM243.378 21.5109C243.11 21.9113 242.579 22.0955 243.222 22.5639C243.724 22.9484 244.162 23.4106 244.518 23.9332C245.501 25.3305 246.421 26.7678 247.385 28.1812C247.645 28.5815 247.956 28.9138 248.292 29.3382L249.62 28.4134C247.752 25.863 246.049 23.2846 243.378 21.5109V21.5109ZM221.452 28.5815C218.521 24.4937 214.075 22.1035 210.836 18.308C210.413 19.1968 210.944 19.5972 211.364 19.9735C214.379 22.656 217.406 25.3252 220.444 27.981C220.761 28.2113 221.098 28.4123 221.452 28.5815ZM223.207 2.55729C223.419 1.98075 223.579 1.75654 223.535 1.62842C222.735 -1.10613 221.916 -3.84068 221.044 -6.55921C220.972 -6.77941 220.48 -6.86349 220.184 -7.01163C220.045 -6.71683 219.929 -6.41162 219.836 -6.09878C219.805 -5.97466 219.956 -5.81051 220.016 -5.65837C220.749 -3.80865 221.481 -1.95892 222.211 -0.1092C222.519 0.667524 222.795 1.44025 223.215 2.5693L223.207 2.55729ZM228.565 -13.3455C229.328 -9.68612 230.932 -6.38305 232.531 -3.07596C232.284 -4.02668 231.982 -4.96242 231.627 -5.87858C231.471 -6.32299 231.144 -6.89152 231.292 -7.22383C231.599 -7.90847 231.252 -8.3729 231.036 -8.88938C230.584 -9.96638 229.804 -10.9953 229.684 -12.0924C229.596 -12.9732 229.236 -13.1413 228.573 -13.3335L228.565 -13.3455ZM225.642 -0.0211175C225.826 -0.469535 226.238 -0.965996 226.154 -1.35836C225.778 -3.08797 225.262 -4.78556 224.786 -6.49115C224.606 -7.14375 224.171 -7.10372 223.587 -6.89152C223.803 -4.47327 224.65 -2.29524 225.642 -0.0211175ZM259.064 -5.43016C259.959 -6.72336 260.047 -7.86042 259.16 -9.06554C258.524 -9.92635 258.016 -10.8792 257.412 -11.7641C257.218 -11.9657 256.993 -12.1347 256.745 -12.2645L256.505 -12.1044C257.336 -9.93035 258.168 -7.76433 259.064 -5.42215V-5.43016ZM220.608 29.6625C219.601 28.7217 218.609 27.7688 217.585 26.8319C216.358 25.6988 215.131 24.5698 213.887 23.4528C213.551 23.1485 213.171 22.7921 212.62 23.3807C212.959 23.705 213.255 23.9973 213.563 24.2775C215.512 26.0552 217.457 27.8328 219.401 29.6105C219.757 29.9468 220.06 30.4072 220.608 29.6705V29.6625ZM204.451 -1.00603L204.787 -0.817859L207.058 -4.66144C207.826 -5.97466 207.838 -6.32699 207.058 -8.24478C206.122 -5.67839 205.287 -3.33621 204.451 -0.998029V-1.00603ZM215.454 20.2898C214.195 19.0246 212.955 17.7114 211.628 16.4943C211.332 16.222 210.74 16.2741 210.157 16.1499C210.301 16.6144 210.345 17.0668 210.465 17.0868C211.504 17.271 211.812 18.2359 212.44 18.8485C213.067 19.461 213.595 19.9535 214.191 20.486C214.615 20.8623 215.055 20.9464 215.454 20.2898ZM217.194 18.1999L216.858 18.5202L223.795 26.6037L224.163 25.907C222.983 24.5618 221.876 23.2526 220.72 21.9954C219.565 20.7382 218.581 19.2568 217.198 18.1999H217.194ZM225.814 -10.3868L225.486 -10.2787C225.738 -9.59404 225.998 -8.9094 226.242 -8.21675C227.297 -5.23397 228.333 -2.23918 229.44 0.735589C229.644 1.30011 229.688 2.06082 230.692 2.42516L225.814 -10.3868ZM249.84 17.0228L253.73 22.648L254.034 22.5359C253.968 22.056 253.846 21.5856 253.67 21.1346C253.002 19.9014 252.247 18.7324 251.551 17.5032C251.199 16.8706 250.691 16.7625 249.84 17.0228ZM215.854 20.7983C215.887 21.2058 216.009 21.6012 216.21 21.9567C216.412 22.3122 216.689 22.6192 217.022 22.8562C218.773 24.3536 220.696 25.6868 221.872 27.7648C221.932 27.8689 222.271 27.8168 222.891 27.8729C220.496 25.2945 218.529 22.8562 215.854 20.7983ZM247.189 23.741L247.357 23.6129C246.505 22.0394 245.649 20.47 244.666 18.6643L243.638 20.494L247.189 23.741ZM220.8 20.7422C218.529 16.6704 217.677 15.9378 215.506 15.8657C215.559 16.1854 215.712 16.48 215.944 16.7062C216.175 16.9324 216.473 17.0784 216.794 17.1229C217.777 17.263 218.249 17.9236 218.813 18.5402C219.453 19.2568 220.124 19.9975 220.784 20.7302L220.8 20.7422ZM254.785 16.6304C254.09 17.7755 254.358 21.4349 255.281 23.3447C255.67 21.0947 255.494 18.7834 254.769 16.6184L254.785 16.6304ZM228.649 2.58531L229.14 2.38112L226.17 -5.81852C226.65 -2.8958 227.205 -0.0211152 228.649 2.58531ZM253.778 -11.1515C254.178 -8.95744 253.862 -6.62327 255.213 -4.62941C255.315 -5.07095 255.326 -5.52875 255.245 -5.97466C255.157 -6.6593 254.913 -7.35995 254.989 -8.02858C255.137 -9.31378 254.398 -10.1866 253.778 -11.1515ZM222.459 -6.8755L222.139 -6.82746C222.099 -6.64729 221.988 -6.42709 222.036 -6.28696C222.835 -3.72724 223.635 -1.17552 224.435 1.36818C224.435 1.36818 224.61 1.33214 224.794 1.29211C224.019 -1.45178 223.24 -4.17432 222.459 -6.8755ZM258.372 -2.29123C258.134 -3.99455 257.326 -5.56677 256.081 -6.75139C256.129 -5.87858 256.345 -5.05381 256.429 -4.21703C256.533 -3.16004 257.069 -2.5755 258.372 -2.29123V-2.29123ZM261.011 13.3233L262.338 7.22563C260.931 9.03132 259.731 10.869 261.011 13.3313V13.3233ZM242.423 24.0893C243.29 24.2495 243.222 25.4866 244.454 25.2905C243.902 24.4897 243.422 23.8251 242.963 23.1725L241.411 22.9803C241.119 24.1414 241.231 24.3736 242.635 25.3826C242.555 24.8941 242.491 24.5177 242.423 24.0974V24.0893ZM216.254 19.7813C215.886 18.384 215.402 17.1068 213.979 16.5543C213.487 16.3621 213.055 16.202 212.979 15.4893C212.927 15.0009 212.388 15.0609 211.812 15.4533L216.254 19.7813ZM255.197 -11.72C255.197 -9.82225 256.221 -8.42094 257.376 -7.0877C256.897 -8.75726 256.553 -10.4789 255.177 -11.72H255.197ZM246.993 30.4753C247.205 28.9459 245.577 26.6317 244.302 26.3915C245.178 27.7207 245.973 28.9339 246.993 30.4753ZM223.191 -9.81825L221.016 -8.12467C221.864 -7.43202 222.323 -8.00856 222.759 -8.48901C223.379 -7.76033 223.379 -7.76033 224.319 -7.68826C223.935 -8.42895 223.599 -9.04553 223.191 -9.81825ZM250.591 20.1216L250.795 19.9215C249.884 18.5602 248.976 17.1949 248.056 15.8417C247.768 15.4213 247.429 15.3892 247.005 15.7616L250.591 20.1216ZM252.522 -11.1755C252.007 -9.88231 252.426 -7.70428 253.458 -6.82746C253.154 -8.38091 253.262 -9.80223 252.522 -11.1755ZM227.673 2.72144C227.273 1.7165 226.985 1.02386 226.666 0.227115C225.958 0.903745 225.59 1.58838 226.05 2.29704C226.25 2.58531 226.929 2.54527 227.673 2.72144ZM212 24.0893L211.724 24.4056C212.524 25.5027 213.691 26.1353 214.803 26.8359L215.015 26.5677L212 24.0893ZM250.783 -11.9162L251.143 -11.8762C251.147 -12.2722 251.206 -12.6657 251.319 -13.0453C251.56 -13.4262 251.849 -13.7747 252.179 -14.0822L250.783 -14.6267V-11.9162ZM256.585 -2.02298C256.305 -0.873912 256.985 -0.365439 257.728 0.431303C257.864 -0.341417 257.948 -0.845887 258.044 -1.38639L256.585 -2.02298ZM213.003 22.612L211.288 21.0585L211.008 21.2187C211.068 21.7592 211.124 22.2957 211.196 22.9523L213.003 22.612ZM233.263 -1.78276L232.995 -1.65064L234.042 0.52339L234.398 0.343223C234.009 -0.353426 233.624 -1.05675 233.243 -1.76674L233.263 -1.78276ZM250.855 -8.56107C251.947 -9.45791 251.375 -10.0865 250.855 -10.7191V-8.56107ZM253.338 16.1019C252.938 15.2291 252.582 15.181 251.263 15.8817C251.883 16.0098 252.387 16.1299 252.898 16.21C253.047 16.2063 253.193 16.1751 253.33 16.1179L253.338 16.1019ZM252.239 16.9026C252.558 17.4552 252.73 17.7835 252.942 18.1038C252.998 18.1878 253.186 18.1758 253.406 18.2279C253.374 17.7274 253.342 17.319 253.31 16.8346L252.239 16.9026ZM223.743 -10.3628L225.05 -8.98947C224.786 -9.73817 224.622 -10.1906 224.423 -10.7831L223.743 -10.3628ZM242.479 27.4605C241.983 26.4155 241.983 26.4155 241.183 26.5356L242.479 27.4605ZM232.599 -0.421491L232.363 -0.337413L232.763 0.787636L233.015 0.703558C232.867 0.335215 232.735 -0.0211175 232.599 -0.421491ZM248.496 23.0924L248.66 22.9603L248.26 22.4839L248.14 22.5839L248.496 23.0924ZM248.86 15.6255C248.86 15.7256 248.888 15.8297 248.904 15.9297C249.204 15.9297 249.508 15.9978 249.808 15.9898C250.003 15.9626 250.195 15.9143 250.379 15.8457C250.379 15.7736 250.379 15.7015 250.379 15.6255H248.86Z" fill="#E174AE"/>
    </g>
    <defs>
        <clipPath id="clip0_2_36">
            <rect width="281" height="812" fill="white"/>
        </clipPath>
    </defs>
</svg>
