<?xml version="1.0" encoding="utf-8"?>
<!-- Generator: Adobe Illustrator 26.0.2, SVG Export Plug-In . SVG Version: 6.00 Build 0)  -->
<svg version="1.1" id="Layer_3" xmlns="http://www.w3.org/2000/svg" xmlns:xlink="http://www.w3.org/1999/xlink" x="0px" y="0px"
	 viewBox="0 0 64 64" style="enable-background:new 0 0 64 64;" xml:space="preserve" fill="#004E67">
<g>
	<path d="M36,44h-2c0,1.103-0.897,2-2,2s-2-0.897-2-2h-2c0,2.206,1.794,4,4,4S36,46.206,36,44z"/>
	<rect x="36" y="36" width="2" height="3"/>
	<rect x="26" y="36" width="2" height="3"/>
	<path d="M49.48,55.853L38,52.265V50.52c3.287-1.708,5.79-4.772,6.68-8.52H45c2.206,0,4-1.794,4-4c0-1.344-0.671-2.528-1.69-3.254
		l0.622-6.097c0.256-2.513-0.217-5.034-1.368-7.292C44.25,16.819,39.602,14,34.433,14h-4.865c-5.169,0-9.817,2.819-12.132,7.357
		c-1.151,2.258-1.624,4.779-1.368,7.292l0.622,6.097C15.671,35.472,15,36.656,15,38c0,2.206,1.794,4,4,4h0.32
		c0.89,3.748,3.393,6.812,6.68,8.52v1.744l-11.48,3.588C11.816,56.697,10,59.168,10,62c0,0.553,0.448,1,1,1h42c0.552,0,1-0.447,1-1
		C54,59.168,52.184,56.697,49.48,55.853z M38.934,54.652l-3.131,3.131l-1.957-0.979l3.365-2.692L38.934,54.652z M45,40h-0.026
		c0.039-0.719,0.024-1.477-0.058-2.296L44.746,36H45c1.103,0,2,0.897,2,2S46.103,40,45,40z M17,38c0-1.103,0.897-2,2-2h0.254
		l-0.171,1.704c-0.082,0.819-0.097,1.577-0.058,2.296H19C17.897,40,17,39.103,17,38z M19.967,28.9L19.455,34H19
		c-0.128,0-0.248,0.026-0.372,0.038l-0.57-5.591c-0.217-2.129,0.184-4.266,1.16-6.181C21.188,18.401,25.154,16,29.567,16h4.865
		c4.413,0,8.379,2.401,10.35,6.266c0.977,1.915,1.377,4.052,1.161,6.181l-0.57,5.591C45.248,34.026,45.128,34,45,34h-0.455
		l-0.512-5.1c-0.044-0.443-0.376-0.803-0.813-0.884c-0.439-0.077-0.876,0.137-1.076,0.535l-1.454,2.897l-4.053-3.231
		c-0.236-0.188-0.544-0.258-0.838-0.194c-0.294,0.064-0.544,0.259-0.679,0.528l-1.5,2.99l-5.08-3.375
		c-0.271-0.18-0.612-0.217-0.914-0.1c-0.303,0.117-0.53,0.374-0.609,0.689l-0.659,2.627l-4.842-3.217
		c-0.292-0.193-0.664-0.22-0.981-0.071C20.217,28.246,20.002,28.552,19.967,28.9z M21.183,41.217
		c-0.2-0.973-0.235-2.057-0.109-3.313l0.717-7.151l4.639,3.081c0.27,0.179,0.611,0.216,0.914,0.1
		c0.303-0.117,0.53-0.374,0.609-0.689l0.659-2.627l4.842,3.217c0.239,0.158,0.533,0.207,0.81,0.134
		c0.277-0.074,0.509-0.263,0.637-0.519l1.454-2.897l4.053,3.231c0.236,0.188,0.545,0.258,0.838,0.194
		c0.294-0.064,0.544-0.259,0.679-0.528l0.462-0.921l0.539,5.376c0.126,1.257,0.091,2.341-0.109,3.313C41.772,46.306,37.223,50,32,50
		S22.228,46.306,21.183,41.217z M32,52c1.388,0,2.731-0.232,4-0.643v1.162l-4,3.201l-4-3.201v-1.162C29.269,51.768,30.612,52,32,52z
		 M26.79,54.113l3.365,2.692l-1.957,0.979l-3.131-3.131L26.79,54.113z M12.112,61c0.346-1.516,1.467-2.759,3.004-3.239l7.795-2.436
		l4.382,4.382C27.485,59.899,27.741,60,28,60c0.151,0,0.305-0.034,0.447-0.105L32,58.118l3.553,1.776C35.695,59.966,35.848,60,36,60
		c0.26,0,0.516-0.101,0.708-0.293l4.382-4.382l7.795,2.436c1.537,0.48,2.658,1.724,3.004,3.239H12.112z"/>
	<path d="M28.932,7.442l-0.391,2.396c-0.062,0.378,0.098,0.758,0.411,0.979c0.314,0.22,0.724,0.244,1.06,0.058L32,9.776l1.988,1.099
		C34.14,10.959,34.306,11,34.472,11c0.202,0,0.404-0.062,0.576-0.183c0.313-0.221,0.473-0.601,0.411-0.979l-0.391-2.396l1.647-1.688
		c0.262-0.269,0.352-0.66,0.232-1.016s-0.427-0.614-0.797-0.671l-2.236-0.342l-1.009-2.15C32.741,1.225,32.388,1,32,1
		s-0.741,0.225-0.905,0.575l-1.009,2.15l-2.236,0.342c-0.371,0.057-0.678,0.315-0.797,0.671s-0.029,0.747,0.232,1.016L28.932,7.442z
		 M30.915,5.622c0.33-0.05,0.613-0.262,0.754-0.563L32,4.354l0.331,0.704c0.142,0.302,0.425,0.514,0.754,0.563l0.84,0.129
		l-0.641,0.656c-0.222,0.228-0.322,0.546-0.271,0.859l0.141,0.862l-0.67-0.37C32.333,7.676,32.167,7.634,32,7.634
		s-0.333,0.042-0.484,0.125l-0.67,0.37l0.141-0.862c0.051-0.313-0.049-0.632-0.271-0.859l-0.641-0.656L30.915,5.622z"/>
	<path d="M40.932,9.442l-0.391,2.396c-0.062,0.378,0.098,0.758,0.411,0.979c0.314,0.221,0.724,0.244,1.06,0.058L44,11.776
		l1.988,1.099C46.14,12.959,46.306,13,46.472,13c0.202,0,0.404-0.062,0.576-0.183c0.313-0.221,0.473-0.601,0.411-0.979l-0.391-2.396
		l1.647-1.688c0.262-0.269,0.352-0.66,0.232-1.016s-0.427-0.614-0.797-0.671l-2.236-0.342l-1.009-2.15C44.741,3.225,44.388,3,44,3
		s-0.741,0.225-0.905,0.575l-1.009,2.15l-2.236,0.342c-0.371,0.057-0.678,0.315-0.797,0.671s-0.029,0.747,0.232,1.016L40.932,9.442z
		 M42.915,7.622c0.33-0.05,0.613-0.262,0.754-0.563L44,6.354l0.331,0.704c0.142,0.302,0.425,0.514,0.754,0.563l0.84,0.129
		l-0.641,0.656c-0.222,0.228-0.322,0.546-0.271,0.859l0.141,0.862l-0.67-0.37C44.333,9.676,44.167,9.634,44,9.634
		s-0.333,0.042-0.484,0.125l-0.67,0.37l0.141-0.862c0.051-0.313-0.049-0.632-0.271-0.859l-0.641-0.656L42.915,7.622z"/>
	<path d="M16.932,9.442l-0.391,2.396c-0.062,0.378,0.098,0.758,0.411,0.979c0.314,0.221,0.724,0.244,1.06,0.058L20,11.776
		l1.988,1.099C22.14,12.959,22.306,13,22.472,13c0.202,0,0.404-0.062,0.576-0.183c0.313-0.221,0.473-0.601,0.411-0.979l-0.391-2.396
		l1.647-1.688c0.262-0.269,0.352-0.66,0.232-1.016s-0.427-0.614-0.797-0.671l-2.236-0.342l-1.009-2.15C20.741,3.225,20.388,3,20,3
		s-0.741,0.225-0.905,0.575l-1.009,2.15l-2.236,0.342c-0.371,0.057-0.678,0.315-0.797,0.671s-0.029,0.747,0.232,1.016L16.932,9.442z
		 M18.915,7.622c0.33-0.05,0.613-0.262,0.754-0.563L20,6.354l0.331,0.704c0.142,0.302,0.425,0.514,0.754,0.563l0.84,0.129
		l-0.641,0.656c-0.222,0.228-0.322,0.546-0.271,0.859l0.141,0.862l-0.67-0.37C20.333,9.676,20.167,9.634,20,9.634
		s-0.333,0.042-0.484,0.125l-0.67,0.37l0.141-0.862c0.051-0.313-0.049-0.632-0.271-0.859l-0.641-0.656L18.915,7.622z"/>
	<path d="M11.988,20.875C12.14,20.959,12.306,21,12.472,21c0.202,0,0.404-0.062,0.576-0.183c0.313-0.221,0.473-0.601,0.411-0.979
		l-0.391-2.396l1.647-1.688c0.262-0.269,0.352-0.66,0.232-1.016s-0.427-0.614-0.797-0.671l-2.236-0.342l-1.009-2.15
		C10.741,11.225,10.388,11,10,11s-0.741,0.225-0.905,0.575l-1.009,2.15l-2.236,0.342c-0.371,0.057-0.678,0.315-0.797,0.671
		s-0.029,0.747,0.232,1.016l1.647,1.688l-0.391,2.396c-0.062,0.378,0.098,0.758,0.411,0.979c0.314,0.221,0.724,0.244,1.06,0.058
		L10,19.776L11.988,20.875z M8.846,18.129l0.141-0.862c0.051-0.313-0.049-0.632-0.271-0.859l-0.641-0.656l0.84-0.129
		c0.33-0.05,0.613-0.262,0.754-0.563L10,14.354l0.331,0.704c0.142,0.302,0.425,0.514,0.754,0.563l0.84,0.129l-0.641,0.656
		c-0.222,0.228-0.322,0.546-0.271,0.859l0.141,0.862l-0.67-0.37c-0.151-0.083-0.317-0.125-0.484-0.125s-0.333,0.042-0.484,0.125
		L8.846,18.129z"/>
	<path d="M58.948,14.738c-0.119-0.355-0.427-0.614-0.797-0.671l-2.236-0.342l-1.009-2.15C54.741,11.225,54.388,11,54,11
		s-0.741,0.225-0.905,0.575l-1.009,2.15l-2.236,0.342c-0.371,0.057-0.678,0.315-0.797,0.671s-0.029,0.747,0.232,1.016l1.647,1.688
		l-0.391,2.396c-0.062,0.378,0.098,0.758,0.411,0.979c0.314,0.221,0.724,0.244,1.06,0.058L54,19.776l1.988,1.099
		C56.14,20.959,56.306,21,56.472,21c0.202,0,0.404-0.062,0.576-0.183c0.313-0.221,0.473-0.601,0.411-0.979l-0.391-2.396l1.647-1.688
		C58.978,15.485,59.067,15.094,58.948,14.738z M55.284,16.407c-0.222,0.228-0.322,0.546-0.271,0.859l0.141,0.862l-0.67-0.37
		c-0.151-0.083-0.317-0.125-0.484-0.125s-0.333,0.042-0.484,0.125l-0.67,0.37l0.141-0.862c0.051-0.313-0.049-0.632-0.271-0.859
		l-0.641-0.656l0.84-0.129c0.33-0.05,0.613-0.262,0.754-0.563L54,14.354l0.331,0.704c0.142,0.302,0.425,0.514,0.754,0.563
		l0.84,0.129L55.284,16.407z"/>
</g>
</svg>
