<svg width="20" height="20" viewBox="0 0 20 20" fill="none" xmlns="http://www.w3.org/2000/svg">
<path d="M10.0002 10C12.3013 10 14.1668 8.13452 14.1668 5.83334C14.1668 3.53215 12.3013 1.66667 10.0002 1.66667C7.69898 1.66667 5.8335 3.53215 5.8335 5.83334C5.8335 8.13452 7.69898 10 10.0002 10Z" stroke="#4ECAE4" stroke-width="1.25" stroke-linecap="round" stroke-linejoin="round"/>
<path d="M16.0085 13.1167L13.0585 16.0667C12.9418 16.1834 12.8335 16.4 12.8085 16.5584L12.6502 17.6833C12.5919 18.0917 12.8752 18.375 13.2835 18.3167L14.4085 18.1583C14.5668 18.1333 14.7919 18.025 14.9002 17.9084L17.8502 14.9584C18.3585 14.45 18.6002 13.8583 17.8502 13.1083C17.1085 12.3667 16.5169 12.6083 16.0085 13.1167Z" stroke="#4ECAE4" stroke-width="1.25" stroke-miterlimit="10" stroke-linecap="round" stroke-linejoin="round"/>
<path d="M15.5835 13.5417C15.8335 14.4417 16.5335 15.1416 17.4335 15.3916" stroke="#4ECAE4" stroke-width="1.25" stroke-miterlimit="10" stroke-linecap="round" stroke-linejoin="round"/>
<path d="M2.8418 18.3333C2.8418 15.1083 6.05015 12.5 10.0002 12.5C10.8668 12.5 11.7001 12.625 12.4751 12.8583" stroke="#4ECAE4" stroke-width="1.25" stroke-linecap="round" stroke-linejoin="round"/>
</svg>
