<svg width="63" height="68" viewBox="0 0 63 68" fill="none" xmlns="http://www.w3.org/2000/svg">
<path fill-rule="evenodd" clip-rule="evenodd" d="M29.2752 4.32371C31.4839 7.66316 31.4404 12.1932 29.2746 13.3234C27.0483 14.3673 25.616 13.0557 24.4081 11.3298C22.5014 8.42184 22.6139 4.35775 24.659 3.05497C26.9629 1.571 28.283 3.08974 29.2752 4.32371ZM25.2438 19.1654C37.4879 14.4553 42.9084 19.441 46.4539 26.3414C49.9029 32.9508 53.4413 38.8843 58.3931 44.3487C63.8207 50.3014 63.5878 57.1635 59.2868 63.1143C54.9858 69.0651 48.7458 68.2284 43.0569 65.2703C34.3339 60.7345 25.5428 59.7753 15.9179 61.0314C10.2574 61.9409 4.48617 60.6256 1.69915 54.1196C-0.901797 47.2287 0.275627 40.3761 6.76983 37.2514C11.7471 34.902 14.9493 30.5079 17.8047 26.5898C20.2412 23.2465 22.4251 20.2497 25.2438 19.1654ZM42.3693 15.4106C46.2652 15.2443 50.2369 9.82057 50.0385 5.17543C50.0668 2.32201 48.7848 0.425242 45.925 0.247137C42.1661 0.107425 37.7578 5.84999 37.7999 10.3517C37.778 13.355 38.9229 15.5578 42.3693 15.4106ZM17.6324 14.431C19.3286 17.2967 21.1624 20.8189 18.0814 23.4511C14.7654 26.2695 11.521 23.865 9.37887 21.1611C7.23678 18.4573 5.63819 14.7488 8.71913 12.1166C12.0135 9.32312 14.7008 11.7663 17.3028 14.1319L17.303 14.132C17.413 14.232 17.5227 14.3318 17.6324 14.431ZM59.3648 19.6146C59.8579 17.244 58.6327 15.9998 56.4053 15.4128C53.2049 14.7471 48.9585 17.3263 48.3174 20.4082C47.7997 22.8974 49.1433 24.1662 51.2769 24.61C54.3341 25.3696 58.7483 22.5779 59.3648 19.6146Z" fill="#999999"/>
</svg>
