<svg width="354" height="796" viewBox="0 0 354 796" fill="none" xmlns="http://www.w3.org/2000/svg">
<circle cx="246.288" cy="162.039" r="30.7412" transform="rotate(-66.8088 246.288 162.039)" fill="#E174AE"/>
<circle r="9.88723" transform="matrix(-0.3938 0.919196 0.919196 0.3938 292.367 126.041)" fill="#E174AE"/>
<circle r="2.89897" transform="matrix(-0.3938 0.919196 0.919196 0.3938 266.225 108.551)" fill="#E174AE"/>
<circle r="5.95794" transform="matrix(-0.3938 0.919196 0.919196 0.3938 261.536 68.8611)" fill="#E174AE"/>
<circle cx="93.8101" cy="136.391" r="27.7517" transform="rotate(-66.8088 93.8101 136.391)" fill="#E174AE"/>
<circle r="8.92571" transform="matrix(-0.3938 0.919196 0.919196 0.3938 125.719 112.719)" fill="#E174AE"/>
<circle r="5.37854" transform="matrix(-0.3938 0.919196 0.919196 0.3938 60.4343 115.016)" fill="#E174AE"/>
<circle r="2.44344" transform="matrix(-0.3938 0.919196 0.919196 0.3938 54.5902 126.318)" fill="#E174AE"/>
<circle cx="318.09" cy="108.538" r="12.783" transform="rotate(5.42066 318.09 108.538)" fill="#E174AE"/>
<circle r="7.28496" transform="matrix(-0.995528 -0.0944673 -0.0944673 0.995528 335.879 127.366)" fill="#E174AE"/>
<circle r="8.08581" transform="matrix(-0.995528 -0.0944673 -0.0944673 0.995528 233.599 23.4333)" fill="#E174AE"/>
<circle r="3.98467" transform="matrix(-0.995528 -0.0944673 -0.0944673 0.995528 243.178 11.5253)" fill="#E174AE"/>
<circle cx="99.0903" cy="735.538" r="12.783" transform="rotate(5.42066 99.0903 735.538)" fill="#E174AE"/>
<circle r="7.28496" transform="matrix(-0.995528 -0.0944673 -0.0944673 0.995528 116.879 754.366)" fill="#E174AE"/>
<circle r="8.08581" transform="matrix(-0.995528 -0.0944673 -0.0944673 0.995528 14.5993 650.433)" fill="#E174AE"/>
<circle r="3.98467" transform="matrix(-0.995528 -0.0944673 -0.0944673 0.995528 24.1785 638.525)" fill="#E174AE"/>
<circle cx="228.425" cy="99.0412" r="25.4401" transform="rotate(-160.313 228.425 99.0412)" fill="#E174AE"/>
<circle r="14.6495" transform="matrix(0.941546 0.336884 0.336884 -0.941546 200.728 137.728)" fill="#E174AE"/>
<circle r="7.24681" transform="matrix(0.941546 0.336884 0.336884 -0.941546 152.384 37.1853)" fill="#E174AE"/>
<circle cx="-25.9509" cy="762.408" r="25.4401" transform="rotate(-81.1555 -25.9509 762.408)" fill="#E174AE"/>
<circle r="38.9339" transform="matrix(-0.153753 0.988109 0.988109 0.153753 -1.95322 710.434)" fill="#E174AE"/>
<circle cx="116.711" cy="68.5493" r="23.0179" transform="rotate(-160.313 116.711 68.5493)" fill="#E174AE"/>
<circle r="11.509" transform="matrix(0.941546 0.336884 0.336884 -0.941546 87.699 35.759)" fill="#E174AE"/>
<circle r="6.55682" transform="matrix(0.941546 0.336884 0.336884 -0.941546 114.865 16.4794)" fill="#E174AE"/>
</svg>
